<svg xmlns="http://www.w3.org/2000/svg" viewBox="0 0 1200 630" font-family="system-ui, -apple-system, Segoe UI, Roboto, sans-serif">
  <defs>
    <linearGradient id="bg" x1="0" y1="0" x2="1" y2="1">
      <stop offset="0" stop-color="#141417"/>
      <stop offset="1" stop-color="#1d1d22"/>
    </linearGradient>
    <linearGradient id="accent" x1="0" y1="0" x2="1" y2="0">
      <stop offset="0" stop-color="#fb923c"/>
      <stop offset="1" stop-color="#f97316"/>
    </linearGradient>
  </defs>

  <rect width="1200" height="630" fill="url(#bg)"/>
  <rect x="0" y="0" width="1200" height="6" fill="url(#accent)"/>

  <!-- wordmark -->
  <text x="60" y="78" font-size="30" font-weight="800" fill="#ffffff">Crunchy<tspan fill="#fb923c">The</tspan>Great</text>

  <!-- headline -->
  <text x="60" y="168" font-size="52" font-weight="800" fill="#ffffff">Compress messy Jira tickets</text>
  <text x="60" y="228" font-size="52" font-weight="800" fill="#ffffff"><tspan fill="#fb923c">60% smaller</tspan> before your AI agent</text>
  <text x="60" y="288" font-size="52" font-weight="800" fill="#ffffff">ever reads them.</text>

  <!-- RAW card -->
  <rect x="60" y="330" width="440" height="230" rx="14" fill="#1f1f23" stroke="#33333a"/>
  <text x="84" y="364" font-size="14" font-weight="700" letter-spacing="1.5" fill="#9a9aa2">RAW JIRA TICKET</text>
  <g fill="#3a3a42">
    <rect x="84" y="382" width="392" height="9" rx="4.5"/>
    <rect x="84" y="402" width="330" height="9" rx="4.5"/>
    <rect x="84" y="422" width="360" height="9" rx="4.5"/>
    <rect x="84" y="442" width="300" height="9" rx="4.5"/>
  </g>
  <g font-size="13" font-weight="700">
    <rect x="84" y="474" width="70" height="26" rx="13" fill="#3a2416"/>
    <text x="119" y="491" fill="#fb923c" text-anchor="middle">bot ✕</text>
    <rect x="162" y="474" width="86" height="26" rx="13" fill="#3a2416"/>
    <text x="205" y="491" fill="#fb923c" text-anchor="middle">dupe ×3 ✕</text>
    <rect x="256" y="474" width="96" height="26" rx="13" fill="#3a2416"/>
    <text x="304" y="491" fill="#fb923c" text-anchor="middle">stack trace ✕</text>
    <rect x="360" y="474" width="88" height="26" rx="13" fill="#3a2416"/>
    <text x="404" y="491" fill="#fb923c" text-anchor="middle">greeting ✕</text>
  </g>
  <text x="84" y="532" font-size="14" fill="#9a9aa2">12 comments · mostly noise</text>

  <!-- arrow -->
  <circle cx="545" cy="445" r="30" fill="url(#accent)"/>
  <path d="M534 445 h18 M545 434 l13 11 l-13 11" fill="none" stroke="#141417" stroke-width="4" stroke-linecap="round" stroke-linejoin="round"/>

  <!-- CIR card -->
  <rect x="590" y="330" width="550" height="230" rx="14" fill="#1f1f23" stroke="#33333a"/>
  <text x="614" y="364" font-size="14" font-weight="700" letter-spacing="1.5" fill="#fb923c">COMPRESSED CIR</text>
  <g font-size="17" fill="#ececec">
    <text x="614" y="398"><tspan fill="#4ade80" font-weight="700">✓</tspan>  Every decision (incl. rejections)</text>
    <text x="614" y="428"><tspan fill="#4ade80" font-weight="700">✓</tspan>  Acceptance criteria</text>
    <text x="614" y="458"><tspan fill="#4ade80" font-weight="700">✓</tspan>  Risks, TODOs &amp; blockers</text>
    <text x="614" y="488"><tspan fill="#9a9aa2" font-weight="700">–</tspan>  <tspan fill="#9a9aa2">bots, dupes, logs stripped</tspan></text>
  </g>
  <circle cx="1058" cy="410" r="54" fill="#3a2416" stroke="#fb923c" stroke-width="4"/>
  <text x="1058" y="408" font-size="32" font-weight="800" fill="#fb923c" text-anchor="middle">60%</text>
  <text x="1058" y="432" font-size="13" fill="#fdba74" text-anchor="middle">smaller</text>

  <!-- footer strip -->
  <text x="60" y="600" font-size="17" fill="#c9c9cf">Runs 100% in your browser · No server · No LLM · Deterministic · <tspan fill="#fb923c">Open source</tspan></text>
</svg>
